<?xml version="1.0" encoding="utf-8"?>
<!-- Generator: Adobe Illustrator 16.0.0, SVG Export Plug-In . SVG Version: 6.00 Build 0)  -->
<!DOCTYPE svg PUBLIC "-//W3C//DTD SVG 1.1//EN" "http://www.w3.org/Graphics/SVG/1.1/DTD/svg11.dtd">
<svg version="1.1" id="Capa_1" xmlns="http://www.w3.org/2000/svg" xmlns:xlink="http://www.w3.org/1999/xlink" x="0px" y="0px"
	 width="512px" height="512px" viewBox="0 0 512 512" enable-background="new 0 0 512 512" xml:space="preserve">
<g>
	<g>
		<path d="M256,0C114.624,0,0,114.624,0,256s114.624,256,256,256s256-114.624,256-256C512,114.592,397.376,0,256,0z
			 M408.062,186.335c-17.184,96.705-113.086,178.592-141.918,197.28c-28.866,18.688-55.168-7.488-64.736-27.328
			c-10.913-22.527-43.648-145.023-52.224-155.167c-8.576-10.144-34.304,10.144-34.304,10.144l-12.48-16.353
			c0,0,52.256-62.368,92-70.208c42.145-8.289,42.08,64.736,52.224,105.249c9.824,39.2,16.384,61.6,24.959,61.6
			c8.576,0,24.992-21.823,42.881-55.328c17.983-33.536-0.769-63.168-35.872-42.112C292.672,109.92,425.216,89.665,408.062,186.335z"
			/>
	</g>
</g>
</svg>
