<?xml version="1.0" encoding="utf-8"?>
<!-- Generator: Adobe Illustrator 16.0.0, SVG Export Plug-In . SVG Version: 6.00 Build 0)  -->
<!DOCTYPE svg PUBLIC "-//W3C//DTD SVG 1.1//EN" "http://www.w3.org/Graphics/SVG/1.1/DTD/svg11.dtd">
<svg version="1.1" id="Capa_1" xmlns="http://www.w3.org/2000/svg" xmlns:xlink="http://www.w3.org/1999/xlink" x="0px" y="0px"
	 width="512px" height="512px" viewBox="0 0 512 512" enable-background="new 0 0 512 512" xml:space="preserve">
<g>
	<g>
		<path d="M209.352,312.107c38.415-19.92,76.494-39.655,114.924-59.585c-38.546-20.113-76.614-39.965-114.924-59.958
			C209.352,232.55,209.352,272.127,209.352,312.107z"/>
		<path d="M256,0C114.62,0,0,114.615,0,256c0,141.386,114.62,256,256,256s256-114.614,256-256C512,114.615,397.38,0,256,0z
			 M430.426,341.45c-4.432,19.224-20.154,33.401-39.08,35.513c-44.819,5.014-90.18,5.039-135.355,5.014
			c-45.177,0.025-90.547,0-135.378-5.014c-18.924-2.111-34.638-16.289-39.059-35.513c-6.301-27.384-6.301-57.265-6.301-85.45
			c0-28.185,0.073-58.077,6.375-85.45c4.42-19.223,20.134-33.407,39.059-35.523c44.831-5.007,90.201-5.033,135.377-5.007
			c45.166-0.026,90.537,0,135.351,5.007c18.935,2.116,34.659,16.295,39.08,35.523c6.301,27.378,6.248,57.265,6.248,85.45
			C436.742,284.186,436.727,314.072,430.426,341.45z"/>
	</g>
</g>
</svg>
