<?xml version="1.0" encoding="utf-8"?>
<!-- Generator: Adobe Illustrator 16.0.0, SVG Export Plug-In . SVG Version: 6.00 Build 0)  -->
<!DOCTYPE svg PUBLIC "-//W3C//DTD SVG 1.1//EN" "http://www.w3.org/Graphics/SVG/1.1/DTD/svg11.dtd">
<svg version="1.1" id="Layer_1" xmlns="http://www.w3.org/2000/svg" xmlns:xlink="http://www.w3.org/1999/xlink" x="0px" y="0px"
	 width="106px" height="109.744px" viewBox="0 0 106 109.744" enable-background="new 0 0 106 109.744" xml:space="preserve">
<path d="M53,2.975c-28.18,0-51.023,22.844-51.023,51.023c0,27.185,21.256,49.392,48.053,50.933c0-7.343,0-24.388,0-39.688h-8.502
	V50.855h8.502c0-5.449,0-9.886,0-12.426c0-15.769,16.568-15.477,16.568-15.477h14.534v14.025c0,0-5.206-0.1-6.466-0.054
	c-3.682,0.135-6.542,1.194-6.542,5.413c0,0.959,0,7.032,0,8.519h13.517l-0.873,14.388H68.124c0,13.027,0,29.041,0,37.499
	c20.795-6.444,35.899-25.83,35.899-48.744C104.023,25.818,81.18,2.975,53,2.975z"/>
</svg>
