<?xml version="1.0" encoding="utf-8"?>
<!-- Generator: Adobe Illustrator 16.0.0, SVG Export Plug-In . SVG Version: 6.00 Build 0)  -->
<!DOCTYPE svg PUBLIC "-//W3C//DTD SVG 1.1//EN" "http://www.w3.org/Graphics/SVG/1.1/DTD/svg11.dtd">
<svg version="1.1" id="Capa_1" xmlns="http://www.w3.org/2000/svg" xmlns:xlink="http://www.w3.org/1999/xlink" x="0px" y="0px"
	 width="36px" height="36px" viewBox="0 0 36 36" enable-background="new 0 0 36 36" xml:space="preserve">
<g>
	<path d="M18,0C8.059,0,0,8.059,0,18c0,9.941,8.059,18,18,18c9.941,0,18-8.059,18-18C36,8.059,27.941,0,18,0z M5.361,22.086
		c-0.009,0.059-0.05,0.102-0.104,0.102c-0.054,0-0.096-0.043-0.104-0.103l-0.19-1.424l0.19-1.448
		c0.008-0.061,0.05-0.102,0.104-0.102c0.054,0,0.095,0.041,0.104,0.102l0.227,1.449L5.361,22.086z M6.33,22.951
		c-0.009,0.062-0.054,0.105-0.109,0.105c-0.054,0-0.101-0.043-0.108-0.105L5.856,20.66l0.256-2.341
		c0.008-0.061,0.055-0.105,0.108-0.105c0.056,0,0.101,0.044,0.109,0.105l0.292,2.341L6.33,22.951z M7.376,23.34
		c-0.007,0.074-0.063,0.127-0.13,0.127c-0.069,0-0.124-0.053-0.131-0.127l-0.243-2.678l0.243-2.778
		c0.006-0.076,0.062-0.129,0.131-0.129c0.067,0,0.123,0.054,0.13,0.129l0.276,2.778L7.376,23.34z M8.433,23.424
		c-0.008,0.086-0.075,0.15-0.154,0.15c-0.082,0-0.148-0.064-0.154-0.15l-0.229-2.762l0.229-2.854c0.006-0.086,0.073-0.15,0.154-0.15
		c0.079,0,0.146,0.064,0.154,0.15l0.26,2.854L8.433,23.424z M9.495,23.445c-0.005,0.1-0.083,0.174-0.174,0.174
		c-0.094,0-0.169-0.074-0.176-0.174l-0.217-2.783l0.217-2.648c0.007-0.099,0.082-0.172,0.176-0.172c0.093,0,0.169,0.073,0.174,0.171
		l0.246,2.649L9.495,23.445z M10.567,23.448v-0.003c-0.006,0.111-0.093,0.197-0.198,0.197s-0.192-0.088-0.198-0.194l-0.203-2.784
		l0.203-4.309c0.006-0.11,0.093-0.196,0.198-0.196s0.192,0.087,0.198,0.195l0.229,4.311L10.567,23.448z M11.631,23.445
		L11.631,23.445c-0.006,0.121-0.102,0.217-0.221,0.217c-0.117,0-0.213-0.096-0.219-0.217L11,20.68l0.191-5.296
		c0.006-0.121,0.102-0.217,0.219-0.217c0.119,0,0.214,0.096,0.221,0.217l0.215,5.296L11.631,23.445z M12.735,23.404v-0.002
		c-0.005,0.135-0.111,0.24-0.242,0.24c-0.131,0-0.237-0.105-0.242-0.238l-0.177-2.738c0,0,0.177-5.736,0.177-5.738
		c0.005-0.133,0.111-0.24,0.242-0.24c0.13,0,0.237,0.107,0.242,0.24l0.2,5.738L12.735,23.404z M13.833,23.385
		c-0.005,0.147-0.121,0.264-0.264,0.264c-0.144,0-0.259-0.115-0.264-0.262l-0.166-2.722l0.166-5.929
		c0.005-0.148,0.12-0.263,0.264-0.263c0.143,0,0.259,0.115,0.264,0.263l0.184,5.929L13.833,23.385z M14.938,23.361v-0.002
		c-0.005,0.158-0.129,0.285-0.287,0.285c-0.155,0-0.282-0.127-0.285-0.283l-0.152-2.695l0.15-5.778
		c0.004-0.161,0.131-0.286,0.287-0.286c0.158,0,0.282,0.125,0.287,0.286l0.171,5.778L14.938,23.361z M16.051,23.346v-0.002
		c-0.002,0.172-0.139,0.307-0.308,0.307c-0.17,0-0.305-0.135-0.31-0.305l-0.138-2.68l0.138-5.566c0.005-0.173,0.14-0.308,0.31-0.308
		c0.169,0,0.306,0.135,0.308,0.308l0.156,5.567L16.051,23.346z M17.188,23.062l-0.014,0.263c-0.001,0.091-0.04,0.175-0.099,0.233
		c-0.061,0.059-0.144,0.096-0.231,0.096c-0.102,0-0.192-0.047-0.253-0.119c-0.045-0.055-0.074-0.123-0.077-0.196
		c-0.001-0.003-0.001-0.007-0.001-0.012c0,0-0.126-2.659-0.126-2.663l0.125-6.56l0.001-0.063c0.001-0.115,0.062-0.217,0.153-0.276
		c0.051-0.034,0.111-0.054,0.179-0.054c0.066,0,0.128,0.021,0.181,0.057c0.089,0.059,0.147,0.159,0.149,0.273l0.139,6.625
		L17.188,23.062z M18.292,23.291v-0.004c-0.002,0.193-0.161,0.352-0.353,0.352s-0.351-0.156-0.353-0.35l-0.073-1.293l-0.071-1.328
		l0.145-7.189v-0.036c0-0.109,0.051-0.207,0.131-0.272c0.061-0.05,0.139-0.08,0.222-0.08c0.066,0,0.128,0.019,0.181,0.049
		c0.101,0.062,0.171,0.174,0.174,0.301l0.156,7.227L18.292,23.291z M27.832,23.646c0,0-8.883,0-8.893,0
		c-0.191-0.021-0.344-0.172-0.347-0.369V13.098c0.003-0.188,0.067-0.284,0.31-0.377c0.623-0.241,1.328-0.383,2.053-0.383
		c2.957,0,5.38,2.268,5.637,5.157c0.381-0.159,0.801-0.249,1.24-0.249c1.771,0,3.206,1.436,3.206,3.208S29.604,23.646,27.832,23.646
		z"/>
</g>
</svg>
