<?xml version="1.0" encoding="utf-8"?>
<!-- Generator: Adobe Illustrator 16.0.0, SVG Export Plug-In . SVG Version: 6.00 Build 0)  -->
<!DOCTYPE svg PUBLIC "-//W3C//DTD SVG 1.1//EN" "http://www.w3.org/Graphics/SVG/1.1/DTD/svg11.dtd">
<svg version="1.1" id="Layer_1" xmlns="http://www.w3.org/2000/svg" xmlns:xlink="http://www.w3.org/1999/xlink" x="0px" y="0px"
	 width="766.77px" height="459.65px" viewBox="0 0 766.77 459.65" enable-background="new 0 0 766.77 459.65" xml:space="preserve">
<path d="M416.493,407.306c0,19.222-15.598,34.812-34.837,34.812c-19.226,0-34.826-15.591-34.826-34.812
	c0-19.246,15.6-34.842,34.826-34.842C400.896,372.464,416.493,388.06,416.493,407.306"/>
<path d="M560.587,429.043c0,16.9-13.7,30.607-30.608,30.607c-16.902,0-30.601-13.707-30.601-30.607
	c0-16.906,13.698-30.608,30.601-30.608C546.887,398.435,560.587,412.137,560.587,429.043"/>
<path d="M683.369,393.941c0,11.317-9.186,20.492-20.491,20.492c-11.312,0-20.477-9.175-20.477-20.492
	c0-11.301,9.164-20.491,20.477-20.491C674.184,373.45,683.369,382.641,683.369,393.941"/>
<path d="M128.299,397.951c0,11.317-9.165,20.492-20.472,20.492c-11.329,0-20.494-9.175-20.494-20.492
	c0-11.307,9.165-20.481,20.494-20.481C119.134,377.47,128.299,386.645,128.299,397.951"/>
<path d="M266.903,427.239c0,16.9-13.71,30.608-30.607,30.608c-16.904,0-30.609-13.708-30.609-30.608s13.705-30.607,30.609-30.607
	C253.193,396.632,266.903,410.339,266.903,427.239"/>
<path d="M78.797,63.537c0,4.463-1.232,9.035-3.72,13.736c-7.185,13.39-19.764,20.094-37.748,20.094h-6.864v61.734
	c-2.488-0.996-5.028-1.485-7.626-1.485c-2.366,0-4.607,0.489-6.689,1.485V36.929h32.892c8.183,0,15.064,2.366,20.643,7.067
	C75.759,49.097,78.797,55.592,78.797,63.537 M64.856,67.417c0-8.532-2.082-14.674-6.241-18.399
	c-4.15-3.702-10.568-5.565-19.227-5.565h-4.463h-4.46v47.404h3.332c8.677,0,15.738-1.669,21.197-5.011
	C61.562,81.736,64.856,75.625,64.856,67.417"/>
<path d="M161.171,155.012l-5.582,4.842c-7.946-1.983-14.25-7.756-18.96-17.305c-3.716-8.791-7.439-17.582-11.151-26.394
	c-5.089-9.793-11.918-16.004-20.465-18.608v61.554c-2.483-0.996-4.953-1.485-7.429-1.485c-2.488,0-4.717,0.489-6.704,1.485V36.929
	h32.729c8.184,0,15.12,2.366,20.818,7.067c6.09,5.101,9.118,11.596,9.118,19.541c0,20.7-12.137,31.783-36.443,33.262
	c9.67,2.859,16.417,8.493,20.277,16.931c2.471,7.571,4.951,15.211,7.435,22.872C148.023,145.408,153.48,151.55,161.171,155.012
	 M139.585,67.417c0-8.532-2.064-14.674-6.223-18.399c-4.144-3.702-10.632-5.565-19.416-5.565h-4.652h-4.281v47.404h3.549
	c8.669,0,15.722-1.669,21.186-5.011C136.328,81.736,139.585,75.625,139.585,67.417"/>
<path d="M280.374,95.699c0,13.139-2.749,24.86-8.176,35.131c-5.84,11.032-14.318,19.345-25.476,24.929
	c-8.805,4.463-18.113,6.699-27.903,6.699c-18.11,0-32.609-6.39-43.511-19.161c-10.395-12.005-15.63-27.276-15.63-45.75
	c0-18.216,5.628-33.363,16.841-45.467c11.212-12.068,25.87-18.125,43.979-18.125c17.722,0,32.12,5.828,43.222,17.493
	C274.817,63.104,280.374,77.852,280.374,95.699 M264.741,91.809v-0.573c0-14.505-3.66-26.454-10.963-35.898
	c-7.934-10.4-18.973-15.625-33.105-15.625c-6.571,0-12.831,1.819-18.776,5.414c-9.046,5.569-15.862,14.012-20.462,25.279
	c-3.967,9.798-5.937,20.586-5.937,32.361c0,15.013,3.402,27.32,10.219,36.983c7.692,10.934,18.658,16.387,32.914,16.387
	c9.54,0,18.227-3.77,26.037-11.346c6.824-6.451,11.957-14.634,15.441-24.566C263.192,111.195,264.741,101.696,264.741,91.809"/>
<path d="M372.591,36.929c-3.098,4.204-10.091,16.242-21.01,36.092c-11.408,20.706-17.101,32.032-17.101,34.014v52.819h-7.616h-6.501
	v-49.278l-39.807-73.647h9.663h8.363c6.575,14.345,16.748,35.435,30.513,63.223c4.829-8.099,10.214-18.519,16.151-31.226
	c4.971-10.714,9.874-21.393,14.708-31.997h6.125H372.591z"/>
<path d="M439.548,46.059h-42.413v39.414h35.517l-0.922,3.348l0.922,3.342h-35.517v42.019c0,12.785,8.077,19.151,24.207,19.151
	c2.996,0,6.346-0.886,10.05-2.674c3.666-1.814,6.148-3.951,7.398-6.431v11.909c-6.121,3.089-13.795,4.643-23.037,4.643
	c-9.219,0-16.743-2.575-22.538-7.726c-5.833-5.145-8.714-12.227-8.714-21.288V36.929h55.047c-0.501,1.499-0.758,2.979-0.758,4.463
	C438.79,42.891,439.047,44.455,439.548,46.059"/>
<path d="M545.526,146.464c-11.142,10.41-22.996,15.61-35.512,15.61c-17.373,0-31.359-6.251-42.026-18.777
	c-10.166-11.766-15.259-26.524-15.259-44.251c0-18.604,5.621-34.069,16.838-46.402c11.212-12.338,26.048-18.499,44.524-18.499
	c8.06,0,15.448,1.359,22.136,4.093l-5.765,9.295c-3.604-4.204-9.226-6.321-16.916-6.321c-14.51,0-25.844,6.067-34.024,18.231
	c-7.203,10.664-10.794,23.54-10.794,38.671c0,14.749,3.467,27.525,10.407,38.294c8.057,12.412,19.08,18.604,33.104,18.604
	c6.069,0,12.348-2.291,18.785-6.869c5.826-4.214,10.471-9.24,13.935-15.068L545.526,146.464z"/>
<path d="M624.367,46.059h-32.919v98.926v0.648v0.842c0,4.567,1.303,6.858,3.913,6.858c0.129,0,1.808-0.179,5.011-0.552v3.909
	c-3.597,1.484-6.988,2.232-10.216,2.232c-3.227,0-5.886-0.996-8.007-2.959c-2.1-2.008-3.163-4.607-3.163-7.82V46.059h-32.175
	c0.511-1.604,0.768-3.168,0.768-4.667c0-1.484-0.257-2.964-0.768-4.463h77.556c-0.493,1.499-0.734,2.979-0.734,4.463
	C623.633,42.891,623.874,44.455,624.367,46.059"/>
<path d="M117.675,294.687c0,16.761-6.578,29.407-19.733,37.945c-11.134,7.376-25.497,11.038-43.112,11.038H16.35V175.125h45.147
	c11.623,0,21.032,2.315,28.225,6.923c8.547,5.648,12.815,13.946,12.815,24.88c0,18.997-9.393,31.041-28.217,36.176
	c12.661,2.919,23.047,9.025,31.156,18.34C113.617,270.778,117.675,281.853,117.675,294.687 M83.562,212.332
	c0-11.122-2.986-18.833-8.978-23.087c-4.956-3.427-13.341-5.135-25.139-5.135h-7.07h-6.527v55.413
	C67.645,239.523,83.562,230.453,83.562,212.332 M96.916,293.123c0-14.36-5.581-25.543-16.693-33.597
	c-9.738-7.183-22.165-10.778-37.183-10.778h-7.192v85.691h7.695c15.401,0,27.709-2.903,36.951-8.731
	C91.417,318.535,96.916,307.672,96.916,293.123"/>
<path d="M261.081,344.681c-3.774-1.351-7.87-2.032-12.323-2.032c-4.09,0-7.263,0.682-9.492,2.032l-15.144-43.339h-73.406
	l-15.098,43.339c-2.732-1.011-5.549-1.534-8.46-1.534c-2.728,0-5.21,0.523-7.419,1.534l63.358-169.556
	c2.056,0.513,3.952,0.767,5.64,0.767c1.531,0,3.504-0.254,5.902-0.767L261.081,344.681z M220.451,292.351l-32.763-90.683
	l-32.801,90.683H220.451z"/>
<path d="M381.141,326.227c-15.366,14.385-31.724,21.552-48.978,21.552c-23.96,0-43.279-8.651-57.988-25.915
	c-14.011-16.253-21.029-36.596-21.029-61.052c0-25.651,7.728-47.005,23.211-64c15.476-17.035,35.963-25.527,61.437-25.527
	c11.131,0,21.286,1.873,30.532,5.628l-7.95,12.835c-4.957-5.807-12.736-8.72-23.348-8.72c-20.009,0-35.657,8.383-46.939,25.138
	c-9.927,14.708-14.87,32.5-14.87,53.361c0,20.353,4.762,37.975,14.36,52.848c11.095,17.114,26.333,25.657,45.658,25.657
	c8.378,0,17.02-3.163,25.903-9.494c8.042-5.803,14.455-12.741,19.236-20.771L381.141,326.227z"/>
<path d="M519.432,340.342c-4.954,2.043-9.653,3.068-14.116,3.068c-4.442,0-8.129-1.359-11.043-4.09
	c-2.898-2.738-4.348-6.345-4.348-10.783v-86.2h-71.571v81.877v0.892v1.15c0,6.301,1.696,9.469,5.115,9.469
	c0.359,0,2.655-0.259,6.937-0.771v5.389c-4.964,2.043-9.663,3.068-14.099,3.068c-4.463,0-8.137-1.359-11.04-4.09
	c-2.922-2.738-4.361-6.345-4.361-10.783V175.125c2.207,0,5.292,0.348,9.242,1.021c3.078-0.673,5.82-1.021,8.206-1.021v54.646h71.571
	v-54.646c2.214,0,5.3,0.348,9.252,1.021c3.063-0.673,5.803-1.021,8.201-1.021v149.059v0.917v1.141c0,6.315,1.679,9.483,5.125,9.483
	c0.339,0,2.65-0.259,6.929-0.771V340.342z"/>
<path d="M669.253,182.048c-3.944-0.513-6.251-0.767-6.926-0.767c-3.768,0-5.638,3.332-5.638,9.992v0.767v0.767v83.506
	c0,21.861-5.393,39.025-16.171,51.482c-11.286,13.329-27.709,19.983-49.26,19.983c-42.594,0-63.89-22.882-63.89-68.651v-87.342
	c0-6.988-1.86-10.504-5.632-10.504c-0.691,0-2.993,0.254-6.923,0.767v-5.136c5.128-2.206,10.266-3.337,15.394-3.337
	c11.106,0,16.669,4.987,16.669,14.904v90.548c0,16.925,3.678,30.443,11.03,40.539c8.213,11.293,20.528,16.926,36.966,16.926
	c17.089,0,29.905-6.59,38.465-19.765c7.181-10.923,10.768-25.473,10.768-43.599v-84.65c0-9.917,4.017-14.904,12.061-14.904
	c3.753,0,8.121,1.131,13.087,3.337V182.048z"/>
<path d="M753.142,187.697h-58.506v54.381h49.008l-1.275,4.627l1.275,4.617h-49.008v57.969c0,17.623,11.113,26.434,33.405,26.434
	c4.132,0,8.759-1.25,13.842-3.721c5.091-2.48,8.496-5.43,10.226-8.845v16.417c-8.455,4.268-19.032,6.404-31.781,6.404
	c-12.743,0-23.099-3.541-31.107-10.639c-8.008-7.104-12.017-16.891-12.017-29.373V175.125h75.938
	c-0.704,2.062-1.033,4.104-1.033,6.157C752.108,183.343,752.438,185.475,753.142,187.697 M735.44,141.264l-22.836,28.217h-8.206
	l8.206-28.217c3.41,1.365,7.441,2.043,12.059,2.043C728.918,143.307,732.519,142.629,735.44,141.264"/>
<path d="M702.08,154.817c-2.999,0.842-6.095,1.319-9.27,1.319c-14.258,0-25.238-5.453-32.927-16.386
	c-6.826-9.663-10.23-21.971-10.23-36.984c0-11.775,2-22.563,5.967-32.361c4.57-11.267,11.399-19.71,20.447-25.278
	c5.959-3.596,12.208-5.414,18.784-5.414c14.125,0,25.16,5.224,33.106,15.625c7.3,9.443,10.949,21.392,10.949,35.897v0.573
	c0,9.887-1.532,19.386-4.646,28.416c-1.896,5.454-4.341,10.316-7.242,14.699l14.761,3.203c1.669-2.277,3.213-4.707,4.571-7.297
	c5.457-10.271,8.168-21.991,8.168-35.131c0-17.847-5.531-32.595-16.627-44.251c-11.104-11.665-25.51-17.492-43.248-17.492
	c-18.084,0-32.745,6.056-43.97,18.125c-11.213,12.103-16.816,27.251-16.816,45.466c0,18.474,5.211,33.746,15.621,45.75
	c10.915,12.771,25.402,19.162,43.503,19.162c2.657,0,5.268-0.204,7.867-0.538L702.08,154.817z"/>
<path d="M759.119,15.301H7.65c-4.225,0-7.65-3.425-7.65-7.65C0,3.425,3.425,0,7.65,0h751.469c4.226,0,7.65,3.425,7.65,7.651
	C766.77,11.876,763.345,15.301,759.119,15.301"/>
</svg>
